<svg width="900" height="600" viewBox="0 0 900 600" fill="none" xmlns="http://www.w3.org/2000/svg"><path fill="transparent" d="M0 0h900v600H0z"/><path clip-rule="evenodd" d="M362.616 143.255h241.223c14.796 0 26.807 12.011 26.807 26.807v158.294c0 14.815-12.011 26.807-26.807 26.807H362.616c-14.796.019-26.807-11.992-26.807-26.807V170.062c0-14.796 12.011-26.807 26.807-26.807z" stroke="#E1E4E5" stroke-width="4" stroke-linecap="round" stroke-linejoin="round"/><path d="m337.786 161.627 122.183 87.394c13.729 9.818 32.18 9.838 45.929.04l122.755-87.552M564.06 394.073H335.539c-21.828 0-39.509-17.68-39.509-39.509V208.993" stroke="#E1E4E5" stroke-width="4" stroke-linecap="round" stroke-linejoin="round"/><path d="M534.799 427.204H306.278c-21.829 0-39.509-17.68-39.509-39.509V242.123" stroke="#E1E4E5" stroke-width="4" stroke-linecap="round" stroke-linejoin="round"/><path d="M645.356 442.611c15.954-18.972 43.981-49.931 28.458-21.991-19.403 34.926 16.17 11.642 28.459 0 12.288-11.642 41.394-20.05 20.697 10.349-20.697 30.398 38.806 12.289 49.802-10.349M564.243 535.148c15.954-18.972 43.981-49.931 28.459-21.991-19.404 34.927 16.169 11.643 28.458 0 12.289-11.642 41.394-20.05 20.697 10.349s38.807 12.289 49.802-10.349M161 509.204c15.954-18.972 43.981-49.931 28.458-21.99-19.403 34.926 16.17 11.642 28.459 0 12.288-11.642 41.393-20.05 20.696 10.348-20.696 30.399 38.807 12.289 49.802-10.348m90.79 40.269c15.954-18.972 43.981-49.931 28.458-21.99-19.403 34.926 16.17 11.642 28.458 0 12.289-11.642 41.394-20.05 20.697 10.348-20.697 30.399 38.807 12.289 49.802-10.348M65 282.67c15.954-18.972 43.981-49.931 28.458-21.99-19.403 34.926 16.17 11.642 28.459 0 12.288-11.642 41.393-20.05 20.696 10.348-20.696 30.399 38.807 12.289 49.802-10.348M65 404.911c15.954-18.973 43.981-49.932 28.458-21.991-19.403 34.926 16.17 11.642 28.459 0 12.288-11.642 41.393-20.05 20.696 10.349-20.696 30.398 38.807 12.288 49.802-10.349m500.923-76.259c15.954-18.972 43.981-49.931 28.459-21.99-19.404 34.926 16.169 11.642 28.458 0 12.289-11.642 41.394-20.05 20.697 10.348-20.697 30.399 38.807 12.289 49.802-10.348M139.258 176.424c15.954-18.972 43.981-49.931 28.458-21.991-19.403 34.927 16.17 11.642 28.459 0 12.289-11.642 41.394-20.05 20.697 10.349s38.806 12.289 49.802-10.349m426.664 23.133c15.954-18.972 43.981-49.931 28.459-21.99-19.404 34.926 16.169 11.642 28.458 0 12.289-11.642 41.394-20.05 20.697 10.348-20.697 30.399 38.806 12.289 49.802-10.348" stroke="#E1E4E5" stroke-width="4"/><path fill-rule="evenodd" clip-rule="evenodd" d="M483.5 313c-38.381 0-69.5-31.119-69.5-69.5s31.119-69.5 69.5-69.5 69.5 31.119 69.5 69.5-31.119 69.5-69.5 69.5z" fill="#16a34a"/><path d="m503.467 233.986-24.914 25.372-14.957-15.221" stroke="#fff" stroke-width="8" stroke-linecap="round" stroke-linejoin="round"/><path d="M697.715 126.252c-10.566 10.477-30.036 7.984-30.036 7.984s-2.326-19.479 8.25-29.949c10.566-10.477 30.026-7.99 30.026-7.99s2.326 19.478-8.24 29.955z" fill="url(#a)"/><path d="M787.904 385.467c6.712-4.596 7.376-15.308 7.376-15.308s-10.221-3.252-16.931 1.351c-6.712 4.597-7.378 15.303-7.378 15.303s10.221 3.251 16.933-1.346z" fill="url(#b)"/><path d="M165.523 345.992c10.751 10.943 30.856 8.635 30.856 8.635s2.661-20.049-8.101-30.985C177.527 312.699 157.432 315 157.432 315s-2.661 20.049 8.091 30.992z" fill="url(#c)"/><circle cx="663.064" cy="340.325" r="10.853" transform="rotate(180 663.064 340.325)" fill="#16a34a"/><circle cx="104.985" cy="314.62" r="11.424" transform="rotate(180 104.985 314.62)" fill="#16a34a"/><circle r="11.036" transform="matrix(-1 0 0 1 237.119 117.733)" fill="#16a34a"/><circle r="12" transform="matrix(-1 0 0 1 541 105.623)" fill="#16a34a"/><circle r="8.568" transform="matrix(-1 0 0 1 686.568 202.191)" fill="#E1E4E5"/><circle r="9.129" transform="matrix(-1 0 0 1 93.55 411.737)" fill="#fff"/><circle r="7.323" transform="matrix(-1 0 0 1 229.978 216.839)" fill="#E1E4E5"/><circle r="7" transform="matrix(-1 0 0 1 624 106.623)" fill="#E1E4E5"/><circle r="7.311" transform="scale(1 -1) rotate(-75 -112.375 -250.895)" fill="#fff"/><circle r="9.725" transform="matrix(-1 0 0 1 310.067 118.708)" fill="#E1E4E5"/><ellipse rx="12.176" ry="9.613" transform="scale(-1 1) rotate(26.006 -1270.4 -1416.511)" fill="#fff"/><circle r="14.158" transform="scale(1 -1) rotate(-75 162.63 -317.64)" fill="#E1E4E5"/><path d="M607.313 393.448h.195c1.159 16.42 13.371 16.673 13.371 16.673s-13.466.263-13.466 19.236c0-18.973-13.466-19.236-13.466-19.236s12.207-.253 13.366-16.673zM362.532 82.706h.141c.835 12.016 9.642 12.2 9.642 12.2s-9.711.193-9.711 14.076c0-13.883-9.711-14.076-9.711-14.076s8.803-.184 9.639-12.2zM167.175 202.662h.142c.835 12.015 9.641 12.2 9.641 12.2s-9.71.192-9.71 14.076c0-13.884-9.711-14.076-9.711-14.076s8.803-.185 9.638-12.2z" fill="#E1E4E5"/><path d="M774.256 485.091c-16.896-4.002-34.766 10.327-34.766 10.327s9.536 20.811 26.437 24.801c16.896 4.003 34.761-10.314 34.761-10.314s-9.536-20.811-26.432-24.814z" fill="url(#d)"/><path d="M745.634 228.782c6.712 4.597 7.376 15.309 7.376 15.309s-10.221 3.251-16.931-1.351c-6.712-4.597-7.378-15.303-7.378-15.303s10.221-3.252 16.933 1.345z" fill="url(#e)"/><path d="M212.039 443.092c5.505-5.604 15.8-4.422 15.8-4.422s1.362 10.266-4.148 15.866c-5.506 5.603-15.795 4.425-15.795 4.425s-1.362-10.266 4.143-15.869z" fill="url(#f)"/><circle r="13.138" transform="matrix(-1 0 0 1 821.862 236.363)" fill="#16a34a"/><circle r="11.995" transform="matrix(-1 0 0 1 311.23 523.446)" fill="#16a34a"/><circle cx="230" cy="393.623" r="11" transform="rotate(-180 230 393.623)" fill="#16a34a"/><circle cx="563.853" cy="461.476" r="10.853" transform="rotate(-180 563.853 461.476)" fill="#16a34a"/><circle cx="703.049" cy="371.032" r="8.568" transform="rotate(-180 703.049 371.032)" fill="#E1E4E5"/><circle cx="102.69" cy="203.655" r="9.129" transform="rotate(-180 102.69 203.655)" fill="#fff"/><circle cx="224.322" cy="303.946" r="7.323" transform="rotate(-180 224.322 303.946)" fill="#E1E4E5"/><circle cx="682.809" cy="478.882" r="11.177" transform="rotate(-180 682.809 478.882)" fill="#E1E4E5"/><circle cx="331.809" cy="479.88" r="9.725" transform="rotate(-180 331.809 479.88)" fill="#E1E4E5"/><ellipse cx="758.869" cy="201.788" rx="12.176" ry="9.613" transform="rotate(-153.994 758.869 201.788)" fill="#fff"/><circle cx="502.382" cy="472.403" r="10.093" transform="rotate(-75 502.382 472.403)" fill="#E1E4E5"/><path d="M744.404 355.099h.196c1.159-16.42 13.371-16.673 13.371-16.673s-13.466-.263-13.466-19.236c0 18.973-13.466 19.236-13.466 19.236s12.206.253 13.365 16.673zM364.852 534.161h.141c.836-12.016 9.642-12.201 9.642-12.201s-9.71-.192-9.71-14.075c0 13.883-9.711 14.075-9.711 14.075s8.803.185 9.638 12.201z" fill="#E1E4E5"/><defs><linearGradient id="a" x1="655.637" y1="161.96" x2="732.567" y2="44.773" gradientUnits="userSpaceOnUse"><stop stop-color="#fff"/><stop offset="1" stop-color="#EEE"/></linearGradient><linearGradient id="b" x1="811.405" y1="366.543" x2="740.567" y2="395.806" gradientUnits="userSpaceOnUse"><stop stop-color="#fff"/><stop offset="1" stop-color="#EEE"/></linearGradient><linearGradient id="c" x1="208.419" y1="383.37" x2="130.692" y2="261.526" gradientUnits="userSpaceOnUse"><stop stop-color="#fff"/><stop offset="1" stop-color="#EEE"/></linearGradient><linearGradient id="d" x1="710.63" y1="475.139" x2="858.537" y2="545.016" gradientUnits="userSpaceOnUse"><stop stop-color="#fff"/><stop offset="1" stop-color="#EEE"/></linearGradient><linearGradient id="e" x1="769.135" y1="247.707" x2="698.297" y2="218.444" gradientUnits="userSpaceOnUse"><stop stop-color="#fff"/><stop offset="1" stop-color="#EEE"/></linearGradient><linearGradient id="f" x1="234.004" y1="423.952" x2="194.204" y2="486.341" gradientUnits="userSpaceOnUse"><stop stop-color="#fff"/><stop offset="1" stop-color="#EEE"/></linearGradient></defs></svg>